<svg xmlns="http://www.w3.org/2000/svg" width="21.545" height="21.545" viewBox="0 0 21.545 21.545">
  <path id="Icon_metro-cross" data-name="Icon metro-cross" d="M23.92,19.237h0L17.383,12.7l6.536-6.536h0a.675.675,0,0,0,0-.952L20.832,2.125a.675.675,0,0,0-.952,0h0L13.343,8.661,6.807,2.125h0a.675.675,0,0,0-.952,0L2.767,5.212a.675.675,0,0,0,0,.952h0L9.3,12.7,2.767,19.237h0a.675.675,0,0,0,0,.952l3.088,3.088a.675.675,0,0,0,.952,0h0l6.536-6.536,6.536,6.536h0a.675.675,0,0,0,.952,0l3.088-3.088a.675.675,0,0,0,0-.952Z" transform="translate(-2.571 -1.928)" fill="#4b4b4b"/>
</svg>
