<svg xmlns="http://www.w3.org/2000/svg" width="85.633" height="53.237" viewBox="0 0 85.633 53.237">
  <g id="Logomark" transform="translate(0)">
    <g id="Text" transform="translate(-109.207 27.937)">
      <g id="Path_14" data-name="Path 14" transform="translate(-189.558 -88.361)" fill="#0083ce">
        <path d="M 373.4339904785156 112.6618957519531 L 363.5195007324219 112.6618957519531 L 363.5195007324219 89.361328125 L 373.4339904785156 89.361328125 C 375.4275512695312 89.361328125 377.0388793945312 89.64302825927734 378.2232666015625 90.19860076904297 C 379.3904724121094 90.74615478515625 380.3683776855469 91.54246520996094 381.1297912597656 92.56539154052734 C 381.9118957519531 93.61610412597656 382.488525390625 94.86209869384766 382.8436584472656 96.26876068115234 C 383.2108764648438 97.72332000732422 383.3970642089844 99.29000854492188 383.3970642089844 100.9253082275391 C 383.3970642089844 103.4921798706055 383.1279602050781 105.4868927001953 382.5971984863281 106.8540344238281 C 382.0733032226562 108.2035140991211 381.3411560058594 109.3450241088867 380.421142578125 110.2468185424805 C 379.5196228027344 111.1303634643555 378.5503540039062 111.7233810424805 377.540283203125 112.0093536376953 C 376.0239562988281 112.4425582885742 374.6431884765625 112.6618957519531 373.4339904785156 112.6618957519531 Z M 368.8660888671875 93.09104919433594 L 368.8660888671875 94.09104919433594 L 368.8660888671875 107.9148788452148 L 368.8660888671875 108.9148788452148 L 369.8660888671875 108.9148788452148 L 371.666259765625 108.9148788452148 C 373.3911743164062 108.9148788452148 374.6222839355469 108.6955032348633 375.4299621582031 108.2442092895508 C 376.2788391113281 107.7700042724609 376.9393005371094 106.9643783569336 377.3928833007812 105.8497848510742 C 377.8135375976562 104.8161239624023 378.0180358886719 103.2561187744141 378.0180358886719 101.0806350708008 C 378.0180358886719 98.13180541992188 377.5393981933594 96.12200164794922 376.5548400878906 94.93639373779297 C 375.5380249023438 93.71192169189453 373.9041748046875 93.09104919433594 371.6986999511719 93.09104919433594 L 369.8660888671875 93.09104919433594 L 368.8660888671875 93.09104919433594 Z" stroke="none"/>
        <path d="M 364.5195007324219 90.361328125 L 364.5195007324219 111.6618957519531 L 373.4339904785156 111.6618957519531 C 374.5502624511719 111.6618957519531 375.8385925292969 111.4555130004883 377.2678527832031 111.0471725463867 C 378.1270446777344 110.8039245605469 378.9295654296875 110.3084945678711 379.7211303710938 109.5326919555664 C 380.5388793945312 108.7311248779297 381.1929016113281 107.7081146240234 381.6649780273438 106.4921340942383 C 382.1507568359375 105.2408447265625 382.3970642089844 103.3679046630859 382.3970642089844 100.9253082275391 C 382.3970642089844 99.37248229980469 382.2210998535156 97.88814544677734 381.8740844726562 96.51356506347656 C 381.5512390136719 95.23482513427734 381.0309448242188 94.10735321044922 380.32763671875 93.16248321533203 C 379.6564331054688 92.26076507568359 378.8291625976562 91.58740234375 377.798583984375 91.10394287109375 C 376.7481079101562 90.61118316650391 375.2796630859375 90.361328125 373.4339904785156 90.361328125 L 364.5195007324219 90.361328125 M 371.666259765625 109.9148788452148 L 369.8660888671875 109.9148788452148 L 367.8660888671875 109.9148788452148 L 367.8660888671875 107.9148788452148 L 367.8660888671875 94.09104919433594 L 367.8660888671875 92.09104919433594 L 369.8660888671875 92.09104919433594 L 371.6986999511719 92.09104919433594 C 374.2156677246094 92.09104919433594 376.1083679199219 92.83341979980469 377.3241577148438 94.29752349853516 C 378.4639587402344 95.67005157470703 379.0180358886719 97.88882446289062 379.0180358886719 101.0806350708008 C 379.0180358886719 103.3878021240234 378.7893981933594 105.0711135864258 378.3191223144531 106.226692199707 C 377.7778015136719 107.5569381713867 376.9697875976562 108.5294723510742 375.917724609375 109.1171722412109 C 374.9437255859375 109.6613998413086 373.5928039550781 109.9148788452148 371.666259765625 109.9148788452148 M 362.5195007324219 88.361328125 L 373.4339904785156 88.361328125 C 375.5854797363281 88.361328125 377.323486328125 88.67197418212891 378.64794921875 89.29325866699219 C 379.9723815917969 89.91455841064453 381.0670166015625 90.80625152587891 381.9319763183594 91.96829986572266 C 382.7969360351562 93.13034820556641 383.4239807128906 94.48223114013672 383.813232421875 96.02397155761719 C 384.2024536132812 97.56570434570312 384.3970642089844 99.19947814941406 384.3970642089844 100.9253082275391 C 384.3970642089844 103.6291046142578 384.1078491210938 105.725959777832 383.5294189453125 107.215934753418 C 382.9509582519531 108.7059020996094 382.148193359375 109.9542388916016 381.1211547851562 110.9609603881836 C 380.0939331054688 111.9676895141602 378.9911499023438 112.6378784179688 377.8126831054688 112.9715347290039 C 376.2017517089844 113.4317855834961 374.7421569824219 113.6618957519531 373.4339904785156 113.6618957519531 L 362.5195007324219 113.6618957519531 L 362.5195007324219 88.361328125 Z M 371.666259765625 107.9148788452148 C 373.2014770507812 107.9148788452148 374.2935180664062 107.7336807250977 374.9421691894531 107.3712387084961 C 375.5909118652344 107.0088424682617 376.0990905761719 106.3760452270508 376.4666442871094 105.4728393554688 C 376.8341979980469 104.5696716308594 377.0180358886719 103.1055908203125 377.0180358886719 101.0806350708008 C 377.0180358886719 98.39984893798828 376.6072082519531 96.56472015380859 375.7855224609375 95.57526397705078 C 374.9638671875 94.58579254150391 373.6015319824219 94.09104919433594 371.6986999511719 94.09104919433594 L 369.8660888671875 94.09104919433594 L 369.8660888671875 107.9148788452148 L 371.666259765625 107.9148788452148 Z" stroke="none" fill="#0083ce"/>
      </g>
      <g id="Path_15" data-name="Path 15" transform="translate(-56.572 -85.554)" fill="#fff">
        <path d="M 219.0337829589844 110.354248046875 L 198.2352905273438 110.354248046875 C 198.5381469726562 108.6023178100586 199.247314453125 106.9262619018555 200.34765625 105.3643264770508 C 201.5795593261719 103.6156463623047 203.945068359375 101.5069580078125 207.3784484863281 99.09683227539062 C 209.5776977539062 97.54801177978516 210.9545135498047 96.39241027832031 211.5881958007812 95.56356811523438 C 212.2503662109375 94.69744873046875 212.5861358642578 93.84738159179688 212.5861358642578 93.03697204589844 C 212.5861358642578 92.13582611083984 212.2329254150391 91.35768127441406 211.5363464355469 90.72413635253906 C 210.8533782958984 90.10296630859375 209.9902648925781 89.78800964355469 208.9710235595703 89.78800964355469 C 207.9131317138672 89.78800964355469 207.030029296875 90.11329650878906 206.3462371826172 90.75485992431641 C 205.73486328125 91.32847595214844 205.3185119628906 92.23621368408203 205.0790710449219 93.52153015136719 L 198.7741088867188 93.03816986083984 C 199.0610504150391 91.42945861816406 199.5325775146484 90.14875793457031 200.1784973144531 89.22566223144531 C 200.8837585449219 88.21776580810547 201.8981781005859 87.4315185546875 203.1935729980469 86.88877105712891 C 204.5160064697266 86.33465576171875 206.3935546875 86.0537109375 208.7740783691406 86.0537109375 C 211.2659759521484 86.0537109375 213.2198944091797 86.32202911376953 214.58154296875 86.85121917724609 C 215.9085845947266 87.36698150634766 216.9649047851562 88.1669921875 217.7211151123047 89.22901916503906 C 218.4733428955078 90.28543853759766 218.854736328125 91.48670196533203 218.854736328125 92.79940795898438 C 218.854736328125 94.20623779296875 218.4109497070312 95.57328796386719 217.5356903076172 96.86258697509766 C 216.6394653320312 98.18277740478516 214.9654693603516 99.66747283935547 212.5601806640625 101.2754211425781 C 211.0712432861328 102.250617980957 210.0971984863281 102.9187622070312 209.5863342285156 103.3154525756836 C 209.0814666748047 103.70751953125 208.4827423095703 104.2253723144531 207.8067779541016 104.8546295166016 L 206.8765258789062 105.7205963134766 L 208.1474609375 105.7205963134766 L 219.0337829589844 105.7205963134766 L 219.0337829589844 110.354248046875 Z" stroke="none"/>
        <path d="M 218.5337829589844 109.854248046875 L 218.5337829589844 106.2205963134766 L 208.1474609375 106.2205963134766 L 205.6056060791016 106.2205963134766 L 207.4660949707031 104.4886627197266 C 208.1529083251953 103.8492965698242 208.7630767822266 103.3217086791992 209.2796783447266 102.9205322265625 C 209.8008117675781 102.515869140625 210.7844085693359 101.8408355712891 212.2865753173828 100.8568954467773 C 214.6357574462891 99.28601837158203 216.2626495361328 97.84764862060547 217.1220092773438 96.58174896240234 C 217.9515075683594 95.35984802246094 218.354736328125 94.12264251708984 218.354736328125 92.79940795898438 C 218.354736328125 91.57575225830078 218.0142517089844 90.50273132324219 217.3138275146484 89.51902770996094 C 216.6053314208984 88.52403259277344 215.6523590087891 87.8038330078125 214.4004058837891 87.3172607421875 C 213.0967559814453 86.81060791015625 211.2037811279297 86.5537109375 208.7740783691406 86.5537109375 C 206.4602508544922 86.5537109375 204.647705078125 86.82158660888672 203.3867950439453 87.34992218017578 C 202.1629791259766 87.86268615722656 201.2475280761719 88.57002258300781 200.5881652832031 89.51232147216797 C 200.0569610595703 90.271484375 199.6497650146484 91.30123901367188 199.3731079101562 92.58263397216797 L 204.6797180175781 92.98945617675781 C 204.9515991210938 91.82311248779297 205.3882293701172 90.96807098388672 206.0041198730469 90.39022064208984 C 206.7836456298828 89.65885162353516 207.7818450927734 89.28800964355469 208.9710235595703 89.28800964355469 C 210.1185760498047 89.28800964355469 211.0948791503906 89.64675140380859 211.8727569580078 90.35424041748047 C 212.6665496826172 91.07618713378906 213.0861358642578 92.00386047363281 213.0861358642578 93.03697204589844 C 213.0861358642578 93.95967864990234 212.7157897949219 94.91192626953125 211.9853973388672 95.86725616455078 C 211.3203735351562 96.73709869384766 209.9077911376953 97.92707824707031 207.6657104492188 99.50605773925781 C 204.2796478271484 101.8829803466797 201.9550170898438 103.9508666992188 200.7564086914062 105.6522827148438 C 199.8227386474609 106.9776153564453 199.1824798583984 108.3867492675781 198.8456726074219 109.854248046875 L 218.5337829589844 109.854248046875 M 219.5337829589844 110.854248046875 L 197.6562652587891 110.854248046875 C 197.9069061279297 108.8066711425781 198.6677856445312 106.8807220458984 199.9388885498047 105.0763702392578 C 201.2100372314453 103.2720031738281 203.5941009521484 101.1424331665039 207.0911712646484 98.68759155273438 C 209.2276000976562 97.18300628662109 210.5942077636719 96.04045104980469 211.1909790039062 95.2598876953125 C 211.7877502441406 94.47933197021484 212.0861358642578 93.73834228515625 212.0861358642578 93.03697204589844 C 212.0861358642578 92.27902221679688 211.7907409667969 91.63137817382812 211.1999206542969 91.09403991699219 C 210.6091156005859 90.55668640136719 209.8661499023438 90.28800964355469 208.9710235595703 90.28800964355469 C 208.0400390625 90.28800964355469 207.2791442871094 90.56519317626953 206.6883544921875 91.11949157714844 C 206.0975646972656 91.67379760742188 205.7007293701172 92.65232849121094 205.497802734375 94.05509948730469 L 198.193359375 93.4951171875 C 198.4798278808594 91.54936218261719 199.0049591064453 90.03066253662109 199.7688293457031 88.93900299072266 C 200.53271484375 87.84733581542969 201.60986328125 87.01020812988281 203.0003509521484 86.4276123046875 C 204.3908081054688 85.84500122070312 206.3153686523438 85.5537109375 208.7740783691406 85.5537109375 C 211.3401641845703 85.5537109375 213.3363800048828 85.83087158203125 214.7626647949219 86.38517761230469 C 216.1889343261719 86.93949890136719 217.3108215332031 87.790771484375 218.12841796875 88.93900299072266 C 218.9459838867188 90.08719635009766 219.354736328125 91.37401580810547 219.354736328125 92.79940795898438 C 219.354736328125 94.31527709960938 218.8862915039062 95.76329040527344 217.9493713378906 97.14341735839844 C 217.012451171875 98.5235595703125 215.3086853027344 100.0394592285156 212.8380584716797 101.6910858154297 C 211.3700103759766 102.6526260375977 210.3883209228516 103.3257522583008 209.8929901123047 103.7103729248047 C 209.397705078125 104.0950012207031 208.8158416748047 104.5983963012695 208.1474609375 105.2205963134766 L 219.5337829589844 105.2205963134766 L 219.5337829589844 110.854248046875 Z" stroke="none" fill="#0083ce"/>
      </g>
      <g id="Path_13" data-name="Path 13" transform="translate(92.137 -88.361)" fill="#0083ce">
        <path d="M 37.3319091796875 112.6618957519531 L 31.7580451965332 112.6618957519531 L 27.66467094421387 102.8694839477539 L 27.00478172302246 101.2908554077148 L 25.95320129394531 102.6405639648438 L 22.65890121459961 106.8688354492188 L 22.44774055480957 107.1398620605469 L 22.44774055480957 107.4834289550781 L 22.44774055480957 112.6618957519531 L 18.07032012939453 112.6618957519531 L 18.07032012939453 89.361328125 L 22.44774055480957 89.361328125 L 22.44774055480957 97.92237854003906 L 22.44774055480957 101.096923828125 L 24.2672004699707 98.49552154541016 L 30.65579795837402 89.361328125 L 36.54927062988281 89.361328125 L 30.30665016174316 97.28633117675781 L 29.91451072692871 97.78414916992188 L 30.1972713470459 98.35130310058594 L 37.3319091796875 112.6618957519531 Z" stroke="none"/>
        <path d="M 19.0703125 90.361328125 L 19.0703125 111.6618957519531 L 21.4477424621582 111.6618957519531 L 21.4477424621582 107.4834289550781 L 21.4477424621582 106.7962951660156 L 21.87005996704102 106.2542419433594 L 25.16436004638672 102.0259704589844 L 27.26752090454102 99.32653045654297 L 28.58731079101562 102.4838104248047 L 32.42388916015625 111.6618957519531 L 35.71595001220703 111.6618957519531 L 29.30232048034668 98.7974853515625 L 28.7368106842041 97.66319274902344 L 29.5211009979248 96.66754150390625 L 34.48857879638672 90.361328125 L 31.17669486999512 90.361328125 L 25.08665084838867 99.06866455078125 L 21.4477424621582 104.2714538574219 L 21.4477424621582 97.92237854003906 L 21.4477424621582 90.361328125 L 19.0703125 90.361328125 M 17.0703125 88.361328125 L 23.4477424621582 88.361328125 L 23.4477424621582 97.92237854003906 L 30.13489151000977 88.361328125 L 38.60997009277344 88.361328125 L 31.09221076965332 97.90512084960938 L 38.94784164428711 113.6618957519531 L 31.09221076965332 113.6618957519531 L 26.74204063415527 103.2551651000977 L 23.4477424621582 107.4834289550781 L 23.4477424621582 113.6618957519531 L 17.0703125 113.6618957519531 L 17.0703125 88.361328125 Z" stroke="none" fill="#0083ce"/>
      </g>
    </g>
    <g id="Logo" transform="translate(-109.207)">
      <g id="Polygon_8" data-name="Polygon 8" transform="translate(194.803) rotate(90)" fill="#fff">
        <path d="M 24.52860260009766 21.37757682800293 L 0.8683324456214905 21.37757682800293 L 12.69846725463867 0.9960101842880249 L 24.52860260009766 21.37757682800293 Z" stroke="none"/>
        <path d="M 12.69846725463867 1.992040634155273 L 1.736677169799805 20.87757682800293 L 23.66025733947754 20.87757682800293 L 12.69846725463867 1.992040634155273 M 12.69846725463867 -1.9073486328125e-06 L 25.39693641662598 21.87757682800293 L -1.9073486328125e-06 21.87757682800293 L 12.69846725463867 -1.9073486328125e-06 Z" stroke="none" fill="#0083ce"/>
      </g>
      <g id="Polygon_6" data-name="Polygon 6" transform="translate(141.084 25.397) rotate(-90)" fill="#0083ce">
        <path d="M 23.65881156921387 20.84136390686035 L 1.738123893737793 20.84136390686035 L 12.69846725463867 1.989580512046814 L 23.65881156921387 20.84136390686035 Z" stroke="none"/>
        <path d="M 12.69846725463867 3.97913932800293 L 3.476240158081055 19.84136390686035 L 21.92069435119629 19.84136390686035 L 12.69846725463867 3.97913932800293 M 12.69846725463867 3.814697265625e-06 L 25.39693641662598 21.84136390686035 L -1.9073486328125e-06 21.84136390686035 L 12.69846725463867 3.814697265625e-06 Z" stroke="none" fill="#0083ce"/>
      </g>
      <g id="Polygon_7" data-name="Polygon 7" transform="translate(109.207 25.397) rotate(-90)" fill="#0083ce">
        <path d="M 23.66025733947754 20.87757682800293 L 1.736677646636963 20.87757682800293 L 12.69846725463867 1.992040157318115 L 23.66025733947754 20.87757682800293 Z" stroke="none"/>
        <path d="M 12.69846725463867 3.98408317565918 L 3.473358154296875 19.87757682800293 L 21.92357635498047 19.87757682800293 L 12.69846725463867 3.98408317565918 M 12.69846725463867 -1.9073486328125e-06 L 25.39693641662598 21.87757682800293 L -1.9073486328125e-06 21.87757682800293 L 12.69846725463867 -1.9073486328125e-06 Z" stroke="none" fill="#0083ce"/>
      </g>
    </g>
  </g>
</svg>
